<?xml version="1.0" standalone="no"?>
<!DOCTYPE svg PUBLIC "-//W3C//DTD SVG 20010904//EN"
 "http://www.w3.org/TR/2001/REC-SVG-20010904/DTD/svg10.dtd">
<svg version="1.0" xmlns="http://www.w3.org/2000/svg"
 width="892.000000pt" height="892.000000pt" viewBox="0 0 892.000000 892.000000"
 preserveAspectRatio="xMidYMid meet">
<metadata>
Created by potrace 1.11, written by Peter Selinger 2001-2013
</metadata>
<g transform="translate(0.000000,892.000000) scale(0.100000,-0.100000)"
fill="#000000" stroke="none">
<path d="M725 7638 c-54 -15 -137 -69 -169 -110 -78 -103 -92 -231 -36 -344
34 -69 85 -119 159 -156 l46 -23 960 0 960 0 57 27 c69 32 122 86 157 158 21
45 26 69 26 135 0 67 -4 89 -28 137 -34 70 -85 121 -157 156 l-55 27 -940 1
c-626 1 -953 -2 -980 -8z"/>
<path d="M570 6890 c-8 -6 -24 -10 -34 -10 -11 0 -51 -16 -90 -35 -119 -59
-213 -166 -257 -295 l-22 -65 0 -2370 0 -2370 22 -65 c60 -174 212 -308 385
-339 42 -8 1198 -11 3901 -11 3324 0 3849 2 3897 15 191 49 336 196 379 382
11 51 17 4162 5 4181 -3 5 -3 12 0 15 7 6 7 520 1 547 -2 8 -7 31 -11 50 -26
120 -145 268 -258 323 -125 60 185 56 -4033 56 -2357 0 -3876 -4 -3885 -9z
m3301 -480 c4 -88 0 -592 -5 -597 -4 -4 -360 -7 -791 -7 l-785 -1 -1 25 c-4
95 -1 579 4 586 3 5 357 9 791 9 692 0 786 -2 787 -15z m2599 -615 c547 -77
1017 -371 1321 -825 24 -36 47 -68 52 -71 5 -3 9 -10 10 -15 0 -5 27 -63 58
-129 90 -185 155 -406 177 -599 14 -123 6 -434 -13 -520 -3 -12 -7 -33 -10
-48 -40 -219 -134 -451 -262 -652 -94 -147 -268 -344 -378 -428 -16 -12 -39
-31 -50 -41 -79 -72 -334 -215 -487 -271 -93 -34 -254 -79 -328 -90 -19 -3
-45 -8 -57 -10 -12 -3 -62 -8 -110 -12 -438 -34 -839 70 -1198 311 -130 88
-173 123 -280 230 -237 236 -417 551 -490 861 -30 130 -34 149 -41 214 -3 36
-8 68 -11 72 -5 10 -5 317 1 348 3 14 7 47 10 73 9 81 56 275 88 366 166 474
547 889 993 1083 39 17 84 36 100 43 98 44 271 87 435 110 95 13 380 13 470 0z"/>
<path d="M6022 5184 c-183 -32 -333 -93 -494 -201 -159 -106 -288 -246 -386
-417 -209 -365 -222 -801 -36 -1179 284 -575 956 -846 1556 -627 290 106 541
325 687 601 36 68 116 279 106 279 -3 0 0 12 5 26 6 14 13 49 16 77 3 29 8 63
10 77 6 33 5 228 -1 260 -2 14 -9 57 -15 95 -6 39 -24 110 -41 159 -149 445
-525 770 -984 850 -98 17 -325 17 -423 0z"/>
</g>
</svg>
